<?xml version="1.0" standalone="no"?>
<!DOCTYPE svg PUBLIC "-//W3C//DTD SVG 20010904//EN"
 "http://www.w3.org/TR/2001/REC-SVG-20010904/DTD/svg10.dtd">
<svg version="1.0" xmlns="http://www.w3.org/2000/svg"
 width="722.000000pt" height="722.000000pt" viewBox="0 0 722.000000 722.000000"
 preserveAspectRatio="xMidYMid meet">
<metadata>
Created by potrace 1.14, written by Peter Selinger 2001-2017
</metadata>
<g transform="translate(0.000000,722.000000) scale(0.100000,-0.100000)"
fill="#000000" stroke="none">
<path d="M4807 6658 c-30 -51 -62 -107 -71 -125 -29 -58 -38 -54 -51 20 -3 20
-9 37 -13 37 -7 0 -47 -61 -84 -128 -57 -102 -213 -324 -271 -384 -7 -7 -28
-33 -47 -58 -94 -121 -268 -295 -450 -450 -52 -44 -153 -134 -180 -160 -3 -3
-23 -21 -44 -40 l-38 -35 14 30 c8 17 21 53 28 80 16 59 58 146 94 194 54 72
12 59 -191 -62 -101 -60 -154 -100 -234 -176 -57 -54 -105 -98 -107 -97 -4 4
36 189 47 219 28 74 1 75 -96 4 -118 -87 -224 -190 -283 -276 -30 -44 -62 -80
-70 -80 -8 0 -51 34 -95 77 -45 42 -99 91 -120 109 -132 106 -209 162 -318
234 -400 265 -505 357 -632 555 -69 108 -63 101 -74 84 -5 -8 -8 -60 -6 -120
l4 -105 -25 30 c-14 17 -57 77 -95 135 -106 158 -146 185 -129 87 15 -83 19
-120 35 -339 l6 -87 -57 31 -57 31 7 -24 c3 -13 16 -78 29 -144 18 -101 22
-156 22 -345 0 -198 -7 -355 -21 -470 -2 -19 -5 -156 -7 -304 l-3 -268 -69
-19 c-39 -10 -99 -29 -135 -44 -36 -14 -84 -28 -108 -32 -23 -3 -41 -10 -39
-16 3 -10 103 -67 118 -67 20 0 140 -63 137 -71 -2 -6 -35 -24 -73 -42 -156
-72 -311 -170 -409 -259 -56 -51 -56 -71 2 -62 20 4 87 7 148 7 97 -1 131 -5
204 -29 8 -3 -25 -21 -73 -40 -121 -46 -239 -107 -315 -161 -61 -43 -101 -88
-89 -100 4 -3 41 -7 84 -9 79 -3 206 -25 256 -45 28 -12 37 -29 13 -29 -20 0
-303 -108 -367 -141 -67 -34 -166 -108 -234 -176 -151 -150 -153 -180 -10
-127 126 45 235 66 368 67 60 1 202 -11 230 -18 4 -2 17 -3 30 -4 16 -2 5 -11
-43 -37 -130 -69 -316 -198 -459 -316 -133 -112 -253 -239 -239 -254 3 -3 43
2 89 10 155 27 488 8 476 -28 -2 -6 -53 -28 -113 -48 -60 -21 -134 -48 -164
-62 -30 -14 -74 -33 -97 -43 -23 -10 -43 -21 -43 -25 0 -8 52 -23 110 -33 19
-3 93 -24 165 -46 126 -39 378 -88 460 -90 22 0 33 -3 25 -6 -8 -3 -33 -13
-55 -23 -59 -26 -165 -57 -221 -65 -27 -3 -64 -8 -83 -11 -19 -2 -37 -7 -40
-10 -9 -9 68 -71 134 -106 118 -64 250 -109 360 -123 28 -3 64 -8 80 -11 227
-36 331 -62 315 -77 -3 -3 -42 -21 -87 -40 -96 -42 -178 -67 -247 -76 -27 -3
-51 -11 -53 -18 -11 -32 339 -113 491 -113 31 0 56 -4 56 -8 0 -13 -79 -50
-161 -75 -40 -13 -74 -28 -76 -34 -4 -10 53 -26 172 -48 68 -13 176 -23 270
-24 55 -1 101 -3 102 -5 1 -1 -22 -39 -52 -84 -52 -77 -73 -129 -50 -125 49 7
83 14 165 32 130 28 304 59 370 66 75 8 115 13 115 15 0 1 20 3 44 6 43 4 43
4 29 -18 -8 -13 -28 -45 -43 -73 -16 -27 -50 -82 -77 -122 -26 -40 -48 -75
-48 -78 0 -12 33 -3 68 19 61 38 178 92 332 151 79 31 148 59 154 62 21 13 -9
-57 -60 -140 -75 -122 -72 -131 25 -73 139 85 313 161 516 227 237 76 266 80
347 49 165 -63 374 -97 608 -98 265 -1 508 61 680 174 92 60 164 134 316 326
80 99 154 183 186 206 29 22 116 73 193 112 77 40 181 98 230 128 50 30 117
67 149 83 56 26 58 29 35 37 -13 5 -44 13 -69 17 -25 4 -54 9 -65 11 -11 3
-63 7 -115 10 -52 4 -97 8 -100 11 -7 6 144 145 220 203 36 28 95 66 132 85
37 20 70 40 73 45 8 14 -33 28 -127 44 -43 8 -82 17 -86 21 -13 13 141 123
260 185 51 27 93 54 93 61 0 17 -57 29 -180 37 l-100 7 48 24 c46 22 54 23
180 16 73 -4 139 -8 147 -10 8 -1 47 -6 85 -10 39 -4 115 -16 169 -26 100 -19
113 -19 102 0 -19 30 -402 93 -575 94 -21 0 27 34 114 77 94 48 133 75 122 87
-5 4 -44 7 -88 6 -43 0 -79 2 -79 6 0 3 48 35 107 71 91 54 150 83 292 141 34
14 20 21 -103 55 -106 29 -108 37 -8 49 26 4 58 8 72 11 14 2 77 6 140 10 129
6 144 9 134 25 -10 16 -227 3 -379 -23 -73 -13 -180 -16 -190 -6 -4 3 12 38
34 78 23 39 41 75 41 79 0 4 20 37 45 74 25 37 45 70 45 72 0 3 -56 2 -125 -1
-69 -4 -125 -3 -125 0 0 4 30 21 68 37 37 17 76 34 87 39 27 12 168 55 230 69
68 16 117 22 204 25 45 2 77 8 79 14 2 7 -7 12 -20 13 -52 1 -165 -3 -198 -7
-111 -16 -332 -83 -449 -136 -58 -25 -76 -28 -178 -30 -62 -1 -116 2 -120 6
-5 4 12 26 37 48 25 22 83 77 130 122 151 145 177 185 107 165 -36 -10 -410
-13 -420 -3 -7 7 32 45 119 114 74 59 299 279 312 306 11 20 9 20 -112 -6
-106 -23 -142 -27 -256 -24 -73 2 -134 5 -136 7 -2 2 21 19 52 38 30 19 77 52
104 74 111 93 160 137 160 146 0 11 -33 7 -114 -11 -25 -5 -141 -12 -258 -16
-116 -3 -217 -8 -223 -11 -5 -3 8 12 30 33 40 38 75 83 75 94 0 4 -69 12 -153
20 -151 12 -289 43 -290 65 0 5 18 23 41 40 22 16 61 45 86 63 26 18 46 36 46
41 0 13 -64 19 -180 17 l-105 -2 77 53 c43 29 104 67 137 84 57 28 83 49 64
49 -30 1 -246 30 -249 33 -2 2 -6 100 -9 218 -3 118 -7 230 -9 249 -2 19 -7
73 -10 120 -4 46 -9 87 -10 90 -2 3 -7 34 -10 70 -6 54 -39 241 -52 290 -13
50 -38 163 -64 284 -27 128 -35 156 -43 145 -2 -2 -13 -17 -24 -32 l-21 -28
-17 78 c-21 98 -22 103 -34 103 -5 0 -34 -42 -64 -92z m-267 -1342 c0 -2 -7
-7 -16 -10 -8 -3 -12 -2 -9 4 6 10 25 14 25 6z m-410 -2071 c0 -8 -4 -15 -10
-15 -5 0 -7 7 -4 15 4 8 8 15 10 15 2 0 4 -7 4 -15z"/>
</g>
</svg>
